HIERARCHY
ROOT SpineBase
{
  OFFSET 0.000000 0.000000 0.000000
  CHANNELS 6 Xposition Yposition Zposition Zrotation Xrotation Yrotation
  JOINT SpineMid
  {
    OFFSET -0.000000 27.899458 0.000000
    CHANNELS 3 Zrotation Xrotation Yrotation
    JOINT SpineShoulder
    {
      OFFSET -0.113776 20.662543 -0.641207
      CHANNELS 3 Zrotation Xrotation Yrotation
      JOINT Neck
      {
        OFFSET -0.092118 6.822865 -0.501543
        CHANNELS 3 Zrotation Xrotation Yrotation
        JOINT Head
        {
          OFFSET -2.840979 13.679705 -0.592567
          CHANNELS 3 Zrotation Xrotation Yrotation
          End Site
          {
            OFFSET 0 0 0
          }
        }
      }
      JOINT ShoulderLeft
      {
        OFFSET -14.783075 -5.802782 11.444185
        CHANNELS 3 Zrotation Xrotation Yrotation
        JOINT ElbowLeft
        {
          OFFSET -1.081939 -27.067696 1.025641
          CHANNELS 3 Zrotation Xrotation Yrotation
          JOINT WristLeft
          {
            OFFSET -1.348676 -20.915218 -5.662976
            CHANNELS 3 Zrotation Xrotation Yrotation
            JOINT HandLeft
            {
              OFFSET 0.491410 -3.473927 -0.671049
              CHANNELS 3 Zrotation Xrotation Yrotation
              JOINT HandTipLeft
              {
                OFFSET 0.314266 -4.351159 -1.430968
                CHANNELS 3 Zrotation Xrotation Yrotation
                End Site
                {
                  OFFSET 0 0 0
                }
              }
              JOINT ThumbLeft
              {
                OFFSET 1.634935 1.975690 -4.575002
                CHANNELS 3 Zrotation Xrotation Yrotation
                End Site
                {
                  OFFSET 0 0 0
                }
              }
            }
          }
        }
      }
      JOINT ShoulderRight
      {
        OFFSET 12.384617 -3.678763 -10.198311
        CHANNELS 3 Zrotation Xrotation Yrotation
        JOINT ElbowRight
        {
          OFFSET 5.239809 -20.816112 -2.774345
          CHANNELS 3 Zrotation Xrotation Yrotation
          JOINT WristRight
          {
            OFFSET -2.482183 -20.994171 -5.126016
            CHANNELS 3 Zrotation Xrotation Yrotation
            JOINT HandRight
            {
              OFFSET -1.380342 -6.057522 -0.457109
              CHANNELS 3 Zrotation Xrotation Yrotation
              JOINT HandTipRight
              {
                OFFSET -1.553857 -6.105114 -1.392574
                CHANNELS 3 Zrotation Xrotation Yrotation
                End Site
                {
                  OFFSET 0 0 0
                }
              }
              JOINT ThumbRight
              {
                OFFSET -2.378997 1.175971 1.256768
                CHANNELS 3 Zrotation Xrotation Yrotation
                End Site
                {
                  OFFSET 0 0 0
                }
              }
            }
          }
        }
      }
    }
  }
  JOINT HipLeft
  {
    OFFSET -5.784136 0.011704 0.340567
    CHANNELS 3 Zrotation Xrotation Yrotation
    JOINT KneeLeft
    {
      OFFSET -1.722684 -30.560326 4.425843
      CHANNELS 3 Zrotation Xrotation Yrotation
      JOINT AnkleLeft
      {
        OFFSET 0.514338 -31.708783 5.688519
        CHANNELS 3 Zrotation Xrotation Yrotation
        JOINT FootLeft
        {
          OFFSET -4.206941 -7.681447 -4.248470
          CHANNELS 3 Zrotation Xrotation Yrotation
          End Site
          {
            OFFSET 0 0 0
          }
        }
      }
    }
  }
  JOINT HipRight
  {
    OFFSET 4.543272 0.729227 -6.782424
    CHANNELS 3 Zrotation Xrotation Yrotation
    JOINT KneeRight
    {
      OFFSET 10.813131 -28.157136 0.427186
      CHANNELS 3 Zrotation Xrotation Yrotation
      JOINT AnkleRight
      {
        OFFSET 11.104820 -34.493403 4.027639
        CHANNELS 3 Zrotation Xrotation Yrotation
        JOINT FootRight
        {
          OFFSET -0.541302 -5.896951 -4.975081
          CHANNELS 3 Zrotation Xrotation Yrotation
          End Site
          {
            OFFSET 0 0 0
          }
        }
      }
    }
  }
}
MOTION
Frames: 6
Frame Time: 0.033333
76.081072 69.961550 376.351095 2.016544 -0.920594 30.184202 0.009901 -0.356106 -30.102510 0.169448 0.247716 0.092572 -7.765914 2.736914 0.165322 0.000000 0.000000 0.000000 -9.031106 -5.354500 -0.392547 13.209472 5.545034 -2.783809 -10.625156 9.935680 4.189924 6.968768 -11.385867 -2.397131 0.000000 0.000000 0.000000 0.000000 0.000000 0.000000 -2.017577 -0.885521 -0.659447 -0.374578 1.863447 0.524412 -3.003241 -3.330997 0.895191 5.353359 4.629416 -2.101305 0.000000 0.000000 0.000000 0.000000 0.000000 0.000000 -0.781889 4.163875 -30.412214 0.193334 -4.487538 0.081281 4.808157 -2.167168 0.188479 0.000000 0.000000 0.000000 -0.578103 2.754035 -29.724642 -0.330228 -2.015350 -0.751962 -1.248650 1.065305 1.494777 0.000000 0.000000 0.000000
76.147199 70.036502 376.138798 2.152484 -0.554185 27.484301 -0.446550 0.048893 -27.418777 0.091710 0.416249 0.073008 -11.493862 2.388640 0.115480 0.000000 0.000000 0.000000 -11.526338 -7.941655 -0.807280 15.693479 6.327933 -2.950738 -10.823910 7.891037 3.782204 7.091675 -11.449451 -2.390630 0.000000 0.000000 0.000000 0.000000 0.000000 0.000000 -1.681655 -1.723156 -0.654532 0.661337 2.676835 0.220925 -1.282936 -3.597356 0.965531 3.796744 5.062572 -2.248870 0.000000 0.000000 0.000000 0.000000 0.000000 0.000000 -1.476874 3.773632 -27.710359 0.305285 -4.737247 0.078545 4.638096 -0.970039 -0.182875 0.000000 0.000000 0.000000 -0.518881 3.173321 -26.719101 -0.699945 -3.273432 -1.260373 -1.452337 1.011325 2.089133 0.000000 0.000000 0.000000
76.256902 70.166009 375.815655 1.138358 0.066268 24.535715 -1.063101 0.412415 -24.532547 0.406816 0.861132 0.038494 -15.275482 2.567976 0.248422 0.000000 0.000000 0.000000 -13.697116 -11.089742 -1.522314 17.484513 6.804107 -2.701276 -11.184929 8.348077 3.804018 6.361410 -13.276566 -2.355917 0.000000 0.000000 0.000000 0.000000 0.000000 0.000000 -2.911080 -2.211217 -0.119190 3.428034 2.777910 -0.449111 0.268752 -1.959846 0.450566 2.674937 2.729548 -1.581836 0.000000 0.000000 0.000000 0.000000 0.000000 0.000000 -1.320273 2.720649 -24.811114 0.541844 -5.127170 0.094216 4.512775 8.245988 -5.113143 0.000000 0.000000 0.000000 0.002400 2.806084 -23.556212 -0.706791 -4.311220 -1.673163 -0.934773 1.511377 2.003040 0.000000 0.000000 0.000000
76.370785 70.255841 375.328718 -0.876534 1.009952 21.638503 -1.158355 1.254448 -21.691393 0.406931 0.591853 -0.034238 -18.843227 3.150475 0.562060 0.000000 0.000000 0.000000 -15.522202 -14.561759 -2.604571 18.476868 7.113043 -1.933951 -11.123162 8.445302 3.618904 4.371895 -14.997857 -2.180186 0.000000 0.000000 0.000000 0.000000 0.000000 0.000000 -4.546466 -2.042599 0.869319 6.872045 1.848315 -1.279162 0.754204 1.284451 -0.546845 2.605505 -0.855249 -0.513954 0.000000 0.000000 0.000000 0.000000 0.000000 0.000000 -0.367086 1.115662 -21.971217 0.992037 -5.697906 0.147628 4.892076 15.604315 -9.022245 0.000000 0.000000 0.000000 1.025002 1.427641 -20.588851 -0.478301 -4.742414 -1.839307 0.189408 2.289439 1.261801 0.000000 0.000000 0.000000
76.490284 70.283016 374.699919 -3.048419 2.222809 19.084132 -1.389419 1.580382 -19.147203 0.290166 0.587345 -0.120612 -24.751683 4.440167 1.106428 0.000000 0.000000 0.000000 -16.123901 -17.431586 -3.653967 17.453885 6.397546 -0.548238 -9.764729 13.679830 4.217285 5.446373 -18.366917 -2.934074 0.000000 0.000000 0.000000 0.000000 0.000000 0.000000 -6.624583 -1.232744 2.152147 10.314948 -0.252435 -2.043754 -0.505584 6.769504 -1.874482 3.824825 -6.376264 1.220278 0.000000 0.000000 0.000000 0.000000 0.000000 0.000000 0.707627 -0.476222 -19.447471 1.757782 -6.646711 0.271083 4.949952 21.469876 -11.814060 0.000000 0.000000 0.000000 2.074400 -0.159384 -17.924809 -0.030380 -5.287559 -2.021829 1.371390 3.203296 0.444428 0.000000 0.000000 0.000000
76.605526 70.215973 373.974646 -6.168449 3.521516 17.078057 -1.528436 1.919761 -17.077544 0.393248 0.550425 -0.219495 -28.502402 5.702280 1.845606 0.000000 0.000000 0.000000 -17.273895 -20.027874 -5.093045 17.912646 6.433256 0.559152 -8.075803 17.023926 4.490462 3.403604 -20.434199 -3.273321 0.000000 0.000000 0.000000 0.000000 0.000000 0.000000 -7.644461 -0.479169 3.509781 11.071216 -0.132731 -2.464031 2.337443 7.311246 -2.915471 2.577255 -8.943063 2.053124 0.000000 0.000000 0.000000 0.000000 0.000000 0.000000 2.638502 -2.097993 -17.378522 2.786363 -7.886421 0.456559 4.873277 25.676758 -13.584153 0.000000 0.000000 0.000000 4.238932 -2.144203 -15.687667 0.253614 -5.855569 -2.219937 2.652537 4.378489 -0.447567 0.000000 0.000000 0.000000
